<?xml version="1.0" encoding="iso-8859-1"?>
<!-- Generator: Adobe Illustrator 19.0.0, SVG Export Plug-In . SVG Version: 6.00 Build 0)  -->
<svg version="1.1" id="Layer_1" xmlns="http://www.w3.org/2000/svg" xmlns:xlink="http://www.w3.org/1999/xlink" x="0px" y="0px"
	 viewBox="0 0 428.888 428.888" style="enable-background:new 0 0 428.888 428.888;" xml:space="preserve">
<g>
	<g>
		<path d="M390.783,34.888L390.783,34.888l-17.1-16.9c-0.1-0.1-0.1-0.1-0.2-0.2c-25.6-23.8-66.1-23.7-90.2,0.2l-11.8,11.7
			l-11.8-11.7c-0.1-0.1-0.1-0.1-0.2-0.2c-25.6-23.8-66.1-23.7-90.2,0.2l-11.8,11.7l-11.8-11.7c-0.1-0.1-0.1-0.1-0.2-0.2
			c-25.6-23.8-66.1-23.7-90.2,0.2l-17.1,16.9c-2.1,2.1-2.8,5.1-1.8,7.9l103.6,283.9v38.2c0,36.6,39.3,64,74.5,64
			c17.4,0,35.6-6.4,49.9-17.7c15.9-12.4,24.6-28.9,24.6-46.3v-36.8l103.5-285.3C393.483,39.988,392.883,36.988,390.783,34.888z
			 M179.883,28.588c18.4-18.3,49.5-18.2,69.3,0.1l14.1,13.9l-37.2,163.7h-24.6l-35.8-163.7L179.883,28.588z M52.083,42.188
			l13.8-13.6c18.4-18.3,49.5-18.2,69.3,0.1l15.4,15.3l35.5,162.4h-74.1L52.083,42.188z M214.483,413.888c-25,0-53.6-17.6-58.7-41.5
			h117.4C268.083,396.288,239.483,413.888,214.483,413.888z M273.983,357.388h-119v-23.1h119V357.388z M276.183,319.288h-122.9
			l-35.7-97.9h194.2L276.183,319.288z M317.183,206.388L317.183,206.388l-75.7,0l36.9-162.4l15.5-15.4c18.4-18.3,49.5-18.2,69.3,0.1
			l13.6,13.5L317.183,206.388z"/>
	</g>
</g>
<g>
</g>
<g>
</g>
<g>
</g>
<g>
</g>
<g>
</g>
<g>
</g>
<g>
</g>
<g>
</g>
<g>
</g>
<g>
</g>
<g>
</g>
<g>
</g>
<g>
</g>
<g>
</g>
<g>
</g>
</svg>
